<svg xmlns="http://www.w3.org/2000/svg" viewBox="0 0 61.49 42.67">
    <defs>
        <style>.cls-1{fill:#353535;}.cls-2{fill:#6e7ebd;}</style>
    </defs>
    <g id="Layer_2" data-name="Layer 2">
        <g id="Layer_1-2" data-name="Layer 1">
            <path class="cls-1" d="M40.14,31.5a12.8,12.8,0,0,1-3.6-.46,16.07,16.07,0,0,1-2.67-1h0a2,2,0,0,1-1.11-1.78V25.49a2,2,0,0,1,2-2h.15a2,2,0,0,1,1.36.53h0a5.75,5.75,0,0,0,1.85,1.19,5.08,5.08,0,0,0,1.89.41,2.46,2.46,0,0,0,1.49-.31.51.51,0,0,0,.2-.46.74.74,0,0,0-.07-.38h0a1.27,1.27,0,0,0-.52-.23c-.49-.14-.92-.25-1.3-.34s-1-.23-1.63-.4a8.79,8.79,0,0,1-1.93-.72,6.34,6.34,0,0,1-1.74-1.3,5.82,5.82,0,0,1-1.2-1.93,6.75,6.75,0,0,1-.41-2.4,6.25,6.25,0,0,1,2.24-4.85,7.79,7.79,0,0,1,5.28-1.84,14.33,14.33,0,0,1,3.05.32,12.57,12.57,0,0,1,2.71.94h0a2,2,0,0,1,1.12,1.78v2.62a2,2,0,0,1-2,2h-.16a1.94,1.94,0,0,1-1.34-.52h0a5.3,5.3,0,0,0-1.47-.9,4.34,4.34,0,0,0-1.78-.37,2.12,2.12,0,0,0-1.26.31.29.29,0,0,0-.16.3.91.91,0,0,0,.05.35,1.42,1.42,0,0,0,.65.31c.43.12,1,.25,1.63.41s1.3.32,1.78.46a6.71,6.71,0,0,1,3.51,2.28h0a6.14,6.14,0,0,1,1.18,3.77,6.89,6.89,0,0,1-.55,2.66,6.48,6.48,0,0,1-1.58,2.29A8.07,8.07,0,0,1,43.36,31,8.84,8.84,0,0,1,40.14,31.5Z"/>
            <path class="cls-1" d="M22.33,31.54a9.6,9.6,0,0,1-3.77-.72,8,8,0,0,1-3-2.21,9.49,9.49,0,0,1-1.85-3.39,14,14,0,0,1-.6-4.23,13.61,13.61,0,0,1,.61-4.26,10,10,0,0,1,1.83-3.36l0,0a8.22,8.22,0,0,1,3-2.19,9.67,9.67,0,0,1,3.77-.73,9.47,9.47,0,0,1,3.82.75,8.41,8.41,0,0,1,3,2.16h0A9.6,9.6,0,0,1,31,16.72,13.84,13.84,0,0,1,31.6,21,14,14,0,0,1,31,25.2a9.34,9.34,0,0,1-1.87,3.42A8.14,8.14,0,0,1,26,30.85,9.8,9.8,0,0,1,22.33,31.54Zm0-15.25a3,3,0,0,0-1.24.23,2.32,2.32,0,0,0-.85.71,3.94,3.94,0,0,0-.65,1.41A8.75,8.75,0,0,0,19.32,21a6,6,0,0,0,.93,3.73,2.44,2.44,0,0,0,2.09,1,2.43,2.43,0,0,0,2.09-1h0A6.1,6.1,0,0,0,25.36,21a9.09,9.09,0,0,0-.28-2.36,4.21,4.21,0,0,0-.66-1.41,2.17,2.17,0,0,0-.83-.69A3,3,0,0,0,22.34,16.29Z"/>
            <path class="cls-2" d="M22.33,29.76a8,8,0,0,1-3.08-.58,6.27,6.27,0,0,1-2.37-1.74,7.56,7.56,0,0,1-1.5-2.76A12.41,12.41,0,0,1,14.86,21a12.22,12.22,0,0,1,.52-3.71,8.27,8.27,0,0,1,1.51-2.76,6.4,6.4,0,0,1,2.36-1.72,7.86,7.86,0,0,1,3.08-.58,7.77,7.77,0,0,1,3.11.6,6.58,6.58,0,0,1,2.35,1.7,8,8,0,0,1,1.5,2.75A12.19,12.19,0,0,1,29.82,21a12.39,12.39,0,0,1-.52,3.68,7.9,7.9,0,0,1-1.51,2.78,6.56,6.56,0,0,1-2.42,1.75A8.1,8.1,0,0,1,22.33,29.76Zm0-15.25a4.71,4.71,0,0,0-2,.39,4.17,4.17,0,0,0-1.51,1.23,5.86,5.86,0,0,0-1,2A10.63,10.63,0,0,0,17.54,21a7.7,7.7,0,0,0,1.31,4.83,4.26,4.26,0,0,0,3.49,1.65,4.23,4.23,0,0,0,3.49-1.65A7.7,7.7,0,0,0,27.14,21a10.56,10.56,0,0,0-.35-2.84,5.75,5.75,0,0,0-1-2,4,4,0,0,0-1.5-1.22A4.68,4.68,0,0,0,22.34,14.51Z"/>
            <path class="cls-2" d="M27.64,14.65A6.31,6.31,0,0,0,25.36,13a7.55,7.55,0,0,0-3-.58,7.82,7.82,0,0,0-3,.56A6.22,6.22,0,0,0,17,14.65a8.21,8.21,0,0,0-1.47,2.69A11.87,11.87,0,0,0,15.06,21a12,12,0,0,0,.51,3.63A7.4,7.4,0,0,0,17,27.31,6,6,0,0,0,19.33,29a7.57,7.57,0,0,0,3,.57,7.88,7.88,0,0,0,3-.55,6.17,6.17,0,0,0,2.35-1.7,7.46,7.46,0,0,0,1.47-2.7A12,12,0,0,0,29.62,21a12.07,12.07,0,0,0-.52-3.66A7.83,7.83,0,0,0,27.64,14.65ZM26,26a4.43,4.43,0,0,1-3.65,1.72A4.41,4.41,0,0,1,18.7,26a7.83,7.83,0,0,1-1.36-5,10.54,10.54,0,0,1,.35-2.87,5.83,5.83,0,0,1,1-2.11,4.35,4.35,0,0,1,1.57-1.29,4.83,4.83,0,0,1,2.08-.41,5,5,0,0,1,2.08.42A4.1,4.1,0,0,1,26,16a6.07,6.07,0,0,1,1,2.09A11,11,0,0,1,27.34,21,7.9,7.9,0,0,1,26,26Z"/>
            <path class="cls-2" d="M40.42,29.71a10.88,10.88,0,0,1-3.11-.38,15.17,15.17,0,0,1-2.39-.92l-.11-.05V25.29h.44l0,.05a7.77,7.77,0,0,0,2.39,1.54,6.86,6.86,0,0,0,2.57.54,4.12,4.12,0,0,0,2.62-.71,2.25,2.25,0,0,0,.85-1.84,2.37,2.37,0,0,0-.44-1.48,2.79,2.79,0,0,0-1.45-.85l-1.38-.36q-.63-.13-1.59-.39a7.33,7.33,0,0,1-1.56-.58,4.38,4.38,0,0,1-1.25-.93,4.26,4.26,0,0,1-.83-1.34,4.9,4.9,0,0,1-.3-1.77,4.49,4.49,0,0,1,1.63-3.51,6.06,6.06,0,0,1,4.11-1.4,12.05,12.05,0,0,1,2.66.28,11.13,11.13,0,0,1,2.32.8l.12.06v2.94h-.45l-.06-.05a7.16,7.16,0,0,0-1.95-1.22,6.12,6.12,0,0,0-2.5-.52,3.84,3.84,0,0,0-2.34.67,2,2,0,0,0-.86,1.72,2.24,2.24,0,0,0,.5,1.53,3.07,3.07,0,0,0,1.51.85l1.69.42c.68.16,1.24.31,1.68.44a4.91,4.91,0,0,1,2.59,1.64,4.39,4.39,0,0,1,.83,2.71,5.16,5.16,0,0,1-.41,2,4.76,4.76,0,0,1-1.15,1.66A5.94,5.94,0,0,1,43,29.31,7.11,7.11,0,0,1,40.42,29.71Z"/>
            <path class="cls-2" d="M45.42,21.94a4.7,4.7,0,0,0-2.48-1.57c-.45-.13-1-.28-1.67-.43s-1.24-.3-1.71-.43A3.16,3.16,0,0,1,38,18.6a2.38,2.38,0,0,1-.55-1.66,2.24,2.24,0,0,1,.94-1.88,4,4,0,0,1,2.46-.71,6.35,6.35,0,0,1,2.58.54,7,7,0,0,1,2,1.25h.17V13.52a10.12,10.12,0,0,0-2.29-.78,11.54,11.54,0,0,0-2.61-.28,5.87,5.87,0,0,0-4,1.35,4.28,4.28,0,0,0-1.56,3.36,4.87,4.87,0,0,0,.28,1.69,4.06,4.06,0,0,0,.79,1.28,4.39,4.39,0,0,0,1.2.9,8.44,8.44,0,0,0,1.52.56L40.5,22c.42.09.89.21,1.4.36a2.91,2.91,0,0,1,1.54.92,2.48,2.48,0,0,1,.49,1.6,2.46,2.46,0,0,1-.93,2,4.28,4.28,0,0,1-2.74.75,6.81,6.81,0,0,1-2.64-.56,7.83,7.83,0,0,1-2.45-1.57H35v2.74a14.44,14.44,0,0,0,2.36.91,10.78,10.78,0,0,0,3.05.37,7.19,7.19,0,0,0,2.5-.38A5.88,5.88,0,0,0,44.72,28a4.38,4.38,0,0,0,1.09-1.59,4.77,4.77,0,0,0,.4-1.9A4.16,4.16,0,0,0,45.42,21.94Z"/>
            <path class="cls-2" d="M45.15,41.86a.81.81,0,0,1-.81-.81v-2.8a.81.81,0,0,1,.81-.81h1.62a7.09,7.09,0,0,0,1.85-.21,2.59,2.59,0,0,0,1.9-2,8.93,8.93,0,0,0,.28-2.4V29.33a9.79,9.79,0,0,1,.42-3.06,8.63,8.63,0,0,1,1.26-2.35,8,8,0,0,1,1.93-1.81,12.86,12.86,0,0,1,1.28-.78,12.16,12.16,0,0,1-1.28-.78,8,8,0,0,1-1.93-1.81,8.34,8.34,0,0,1-1.26-2.35,9.68,9.68,0,0,1-.42-3.05V9.8a9.06,9.06,0,0,0-.28-2.41,2.9,2.9,0,0,0-.74-1.31,2.77,2.77,0,0,0-1.16-.65,7.09,7.09,0,0,0-1.85-.21H45.15a.81.81,0,0,1-.81-.81V1.62a.81.81,0,0,1,.81-.81H47.5A8.64,8.64,0,0,1,53.74,3,8.6,8.6,0,0,1,56,9.45v3a14.25,14.25,0,0,0,.25,2.66,4.92,4.92,0,0,0,.87,2.1,3.78,3.78,0,0,0,1.62,1.26c.74.32,1.3.48,1.31.49a.79.79,0,0,1,.59.77v3.16a.81.81,0,0,1-.59.78,10.76,10.76,0,0,0-1.31.48,3.8,3.8,0,0,0-1.62,1.27,4.88,4.88,0,0,0-.87,2.09A14.27,14.27,0,0,0,56,30.2v3a8.6,8.6,0,0,1-2.3,6.42,8.6,8.6,0,0,1-6.24,2.23Z"/>
            <path class="cls-1" d="M47.5,1.62a7.82,7.82,0,0,1,5.68,2,7.82,7.82,0,0,1,2,5.84v3a15.8,15.8,0,0,0,.26,2.81,5.81,5.81,0,0,0,1,2.43,4.7,4.7,0,0,0,2,1.53,12.78,12.78,0,0,0,1.41.51v3.16a11.85,11.85,0,0,0-1.41.52,4.55,4.55,0,0,0-2,1.53,5.82,5.82,0,0,0-1,2.42,16,16,0,0,0-.26,2.82v3a7.8,7.8,0,0,1-2,5.84,7.82,7.82,0,0,1-5.68,2H45.15v-2.8h1.62A7.77,7.77,0,0,0,48.83,38a3.57,3.57,0,0,0,1.5-.83,3.62,3.62,0,0,0,1-1.68,9.4,9.4,0,0,0,.32-2.63V29.33a9,9,0,0,1,.38-2.8,7.65,7.65,0,0,1,1.14-2.12,7.2,7.2,0,0,1,1.74-1.63,11.39,11.39,0,0,1,2.22-1.2v-.49a11.39,11.39,0,0,1-2.22-1.2,7.4,7.4,0,0,1-1.74-1.63A7.57,7.57,0,0,1,52,16.13a9,9,0,0,1-.38-2.79V9.8a9.53,9.53,0,0,0-.32-2.64,3.72,3.72,0,0,0-1-1.68,3.55,3.55,0,0,0-1.5-.82,7.35,7.35,0,0,0-2.06-.25H45.15V1.62H47.5M47.5,0H45.15a1.62,1.62,0,0,0-1.62,1.62V4.41A1.62,1.62,0,0,0,45.15,6h1.62a6.33,6.33,0,0,1,1.63.18,2,2,0,0,1,.83.46,2.17,2.17,0,0,1,.51,1A8.16,8.16,0,0,1,50,9.8v3.54a10.16,10.16,0,0,0,.47,3.31A8.9,8.9,0,0,0,54,21.22l.17.11-.17.12a9,9,0,0,0-2.12,2A9.11,9.11,0,0,0,50.46,26,10.22,10.22,0,0,0,50,29.33v3.54a8.22,8.22,0,0,1-.25,2.18,2.08,2.08,0,0,1-.52,1,1.87,1.87,0,0,1-.82.45,6.33,6.33,0,0,1-1.63.18H45.15a1.63,1.63,0,0,0-1.62,1.62v2.8a1.63,1.63,0,0,0,1.62,1.62H47.5a9.4,9.4,0,0,0,6.8-2.45,9.36,9.36,0,0,0,2.55-7v-3a14.4,14.4,0,0,1,.23-2.52,4.2,4.2,0,0,1,.73-1.76,3,3,0,0,1,1.29-1,10.26,10.26,0,0,1,1.21-.45,1.63,1.63,0,0,0,1.18-1.56V19.75a1.61,1.61,0,0,0-1.18-1.55s-.53-.16-1.21-.45a3.07,3.07,0,0,1-1.29-1A4.25,4.25,0,0,1,57.08,15a14.49,14.49,0,0,1-.23-2.52v-3a9.35,9.35,0,0,0-2.55-7A9.36,9.36,0,0,0,47.5,0Z"/>
            <path class="cls-2" d="M14,41.86a8.6,8.6,0,0,1-6.24-2.23,8.56,8.56,0,0,1-2.3-6.42v-3a15.17,15.17,0,0,0-.25-2.67,4.88,4.88,0,0,0-.87-2.09,3.8,3.8,0,0,0-1.62-1.27,11.51,11.51,0,0,0-1.31-.48.81.81,0,0,1-.59-.78V19.75A.79.79,0,0,1,1.4,19s.57-.17,1.31-.49a3.78,3.78,0,0,0,1.62-1.26,4.92,4.92,0,0,0,.87-2.1,15.05,15.05,0,0,0,.25-2.66v-3A8.56,8.56,0,0,1,7.75,3,8.64,8.64,0,0,1,14,.81h2.35a.81.81,0,0,1,.81.81V4.41a.81.81,0,0,1-.81.81H14.72a7.09,7.09,0,0,0-1.85.21,2.66,2.66,0,0,0-1.16.65A2.9,2.9,0,0,0,11,7.39a9.06,9.06,0,0,0-.28,2.41v3.54a9.38,9.38,0,0,1-.43,3.05A8.07,8.07,0,0,1,9,18.74a8.21,8.21,0,0,1-1.93,1.81,12.29,12.29,0,0,1-1.29.78q.66.36,1.29.78A8.21,8.21,0,0,1,9,23.92a8.33,8.33,0,0,1,1.25,2.35,9.49,9.49,0,0,1,.43,3.06v3.54a9,9,0,0,0,.28,2.4,2.88,2.88,0,0,0,.74,1.32,2.74,2.74,0,0,0,1.16.64,7.09,7.09,0,0,0,1.85.21h1.62a.82.82,0,0,1,.81.81v2.8a.82.82,0,0,1-.81.81Z"/>
            <path class="cls-1" d="M16.34,1.62V4.41H14.72a7.42,7.42,0,0,0-2.07.25,3.45,3.45,0,0,0-1.49.82,3.65,3.65,0,0,0-1,1.68A10,10,0,0,0,9.88,9.8v3.54a9,9,0,0,1-.38,2.79,7.57,7.57,0,0,1-1.14,2.13,7.4,7.4,0,0,1-1.74,1.63,11.69,11.69,0,0,1-2.22,1.2v.49a11.69,11.69,0,0,1,2.22,1.2,7.2,7.2,0,0,1,1.74,1.63A7.65,7.65,0,0,1,9.5,26.53a9,9,0,0,1,.38,2.8v3.54a9.82,9.82,0,0,0,.31,2.63,3.55,3.55,0,0,0,1,1.68,3.47,3.47,0,0,0,1.49.83,7.85,7.85,0,0,0,2.07.24h1.62v2.8H14a7.81,7.81,0,0,1-5.68-2,7.76,7.76,0,0,1-2.05-5.84v-3A15.12,15.12,0,0,0,6,27.38,5.68,5.68,0,0,0,5,25a4.61,4.61,0,0,0-2-1.53,11.85,11.85,0,0,0-1.41-.52V19.75A12.78,12.78,0,0,0,3,19.24a4.77,4.77,0,0,0,2-1.53,5.67,5.67,0,0,0,1-2.43,14.94,14.94,0,0,0,.27-2.81v-3A7.78,7.78,0,0,1,8.31,3.61a7.8,7.8,0,0,1,5.68-2h2.35m0-1.62H14A9.4,9.4,0,0,0,7.18,2.45a9.39,9.39,0,0,0-2.54,7v3A13.6,13.6,0,0,1,4.4,15a4.12,4.12,0,0,1-.72,1.76,3.07,3.07,0,0,1-1.29,1c-.68.29-1.21.45-1.21.45A1.61,1.61,0,0,0,0,19.75v3.16a1.62,1.62,0,0,0,1.18,1.56,10.26,10.26,0,0,1,1.21.45,3,3,0,0,1,1.29,1,4.06,4.06,0,0,1,.72,1.76,13.52,13.52,0,0,1,.24,2.52v3a9.36,9.36,0,0,0,2.54,7A9.4,9.4,0,0,0,14,42.67h2.35A1.63,1.63,0,0,0,18,41.05v-2.8a1.63,1.63,0,0,0-1.62-1.62H14.72a6.22,6.22,0,0,1-1.63-.18,2,2,0,0,1-.83-.45,2.07,2.07,0,0,1-.51-1,7.82,7.82,0,0,1-.25-2.18V29.33A10.22,10.22,0,0,0,11,26a9.08,9.08,0,0,0-1.38-2.58,8.94,8.94,0,0,0-2.11-2l-.17-.12.17-.11a9,9,0,0,0,2.12-2A9,9,0,0,0,11,16.65a10.16,10.16,0,0,0,.47-3.31V9.8a7.77,7.77,0,0,1,.25-2.18,2.07,2.07,0,0,1,.51-1,2,2,0,0,1,.83-.46A6.22,6.22,0,0,1,14.72,6h1.62A1.62,1.62,0,0,0,18,4.41V1.62A1.62,1.62,0,0,0,16.34,0Z"/>
        </g>
    </g>
</svg>